<svg xmlns="http://www.w3.org/2000/svg" viewBox="0 0 162.62 54.47"><defs><style>.cls-1{font-size:26px;fill:#464848;font-family:Gotham-Black, Gotham Black;letter-spacing:0.27em;}.cls-2{letter-spacing:0.25em;}.cls-3,.cls-4,.cls-6,.cls-7,.cls-8{fill:none;}.cls-3{stroke:#050606;}.cls-3,.cls-4{stroke-width:0.75px;}.cls-4,.cls-6,.cls-7,.cls-8{stroke:#000;}.cls-4,.cls-6,.cls-8{stroke-miterlimit:10;}.cls-5{opacity:0;}.cls-6,.cls-7{stroke-width:0.5px;}</style></defs><title>Asset 2</title><g id="Layer_2" data-name="Layer 2"><g id="Layer_5" data-name="Layer 5"><text class="cls-1" transform="translate(4.23 22.1) scale(1.23 1)">HAP<tspan class="cls-2" x="78.93" y="0">P</tspan><tspan x="102.98" y="0">Y</tspan></text><path class="cls-3" d="M92.6,39.89A4.58,4.58,0,0,0,94.51,38a5.55,5.55,0,0,0,0-5.2l4.65-2.32A10.24,10.24,0,0,1,99,40.53a10.46,10.46,0,0,1-6.36,5.22m0-5.86-5.15-.2-.48,6a11.23,11.23,0,0,1-2.19-.89l-.05,0a10.43,10.43,0,0,1-4.29-14.41,9.94,9.94,0,0,1,7.79-5.62l.9,5.28a5.44,5.44,0,0,0-4.18,2.8,4.94,4.94,0,0,0,1.94,6.49q.25.16.52.31l.05,0"/><path class="cls-3" d="M3,42.52v-.06A10.43,10.43,0,0,1,13.75,31.9a9.94,9.94,0,0,1,8.62,4.24l-4.24,3.28A5.44,5.44,0,0,0,13.69,37c-2.84,0-4.84,2.41-4.84,5.37v.06c0,3,2,5.42,4.84,5.42a5.55,5.55,0,0,0,4.58-2.46l4.24,3a10.24,10.24,0,0,1-9,4.58A10.31,10.31,0,0,1,3,42.52Z"/><path class="cls-3" d="M36.54,32.16H42l8.64,20.45h-6L43.1,49H35.27l-1.45,3.63H27.9Zm4.93,12.44-2.26-5.77-2.29,5.77Z"/><path class="cls-3" d="M55.36,42.52v-.06A10.43,10.43,0,0,1,66.07,31.9a9.94,9.94,0,0,1,8.62,4.24l-4.24,3.28A5.44,5.44,0,0,0,66,37c-2.84,0-4.84,2.41-4.84,5.37v.06c0,3,2,5.42,4.84,5.42a5.55,5.55,0,0,0,4.58-2.46l4.24,3a10.69,10.69,0,0,1-19.46-5.92Z"/><path class="cls-3" d="M87,39.36V37.24l-.09-4.93H92.6v7.58M87,39.36m0,6.35,5.63,0v6.86H87V45.7m5.63,0,0-5.86"/><path class="cls-3" d="M105.68,43.71V32.31h5.71V43.59c0,2.93,1.48,4.32,3.74,4.32s3.74-1.33,3.74-4.18V32.31h5.71V43.56c0,6.56-3.74,9.43-9.51,9.43S105.68,50.06,105.68,43.71Z"/><path class="cls-3" d="M131.17,49.6l3.13-3.74a10.46,10.46,0,0,0,6.58,2.44c1.51,0,2.32-.52,2.32-1.39v-.06c0-.84-.67-1.31-3.42-1.94-4.32-1-7.66-2.2-7.66-6.38v-.06c0-3.77,3-6.5,7.86-6.5a12.78,12.78,0,0,1,8.35,2.7l-2.81,4a10.18,10.18,0,0,0-5.68-2c-1.36,0-2,.58-2,1.3V38c0,.93.7,1.33,3.51,2,4.67,1,7.57,2.52,7.57,6.32v.06c0,4.15-3.28,6.61-8.21,6.61A14.19,14.19,0,0,1,131.17,49.6Z"/><line class="cls-3" x1="12.78" y1="30.73" x2="12.78" y2="31.9"/><line class="cls-4" x1="23.19" y1="35.21" x2="21.83" y2="36.01"/><line class="cls-4" x1="13.81" y1="35.26" x2="14.63" y2="35.61"/><g class="cls-5"><line class="cls-6" x1="97.52" y1="34.14" x2="98.33" y2="34.49"/><line class="cls-7" x1="82.02" y1="37.24" x2="83.14" y2="39.67"/><path class="cls-6" d="M90.92,34.32c-.25,1.2-.5,4.14-.5,4.14"/></g><line class="cls-8" x1="147.49" y1="29.15" x2="145.24" y2="32.96"/><line class="cls-8" x1="132.29" y1="50.4" x2="130.04" y2="54.22"/><line class="cls-8" x1="4.18" y1="45.52" x2="0.23" y2="47.52"/><line class="cls-8" x1="149.61" y1="43.2" x2="148.89" y2="44.61"/><line class="cls-6" x1="145.3" y1="47.71" x2="146.12" y2="48.06"/><line class="cls-7" x1="137.93" y1="50.4" x2="140.59" y2="50.73"/><path class="cls-6" d="M135.32,36.05c-.25,1.2-.5,4.14-.5,4.14"/><line class="cls-3" x1="19.04" y1="51.73" x2="19.81" y2="52.61"/><line class="cls-3" x1="2.2" y1="40.81" x2="2.9" y2="41.76"/><line class="cls-4" x1="2.9" y1="47.54" x2="4.48" y2="47.67"/><line class="cls-4" x1="15.4" y1="50.74" x2="14.63" y2="51.19"/><path class="cls-6" d="M7.59,38.47C7,39.56,6,42.34,6,42.34"/></g></g></svg>